<?xml version="1.0" encoding="UTF-8"?>
<svg version="1.1" xmlns="http://www.w3.org/2000/svg" width="1402" height="1122">
<path d="M0 0 C462.66 0 925.32 0 1402 0 C1402 370.26 1402 740.52 1402 1122 C939.34 1122 476.68 1122 0 1122 C0 751.74 0 381.48 0 0 Z " fill="#FEFDFD" transform="translate(0,0)"/>
<path d="M0 0 C52.70745774 -0.0171359 105.41491572 -0.0330542 158.12237549 -0.04234314 C158.9037337 -0.0424812 159.68509191 -0.04261925 160.49012765 -0.04276149 C177.47531684 -0.04575511 194.46050606 -0.04852519 211.44569533 -0.05106533 C219.77645965 -0.05231255 228.10722397 -0.05360912 236.43798828 -0.05493164 C237.26695441 -0.0550624 238.09592053 -0.05519316 238.95000685 -0.05532788 C265.76980199 -0.05958146 292.58959502 -0.06708694 319.40938888 -0.07629722 C346.99372185 -0.08575275 374.57805364 -0.09189075 402.1623882 -0.09391499 C406.06761193 -0.0942031 409.97283566 -0.09452874 413.87805939 -0.09487724 C415.03084985 -0.09497838 415.03084985 -0.09497838 416.206929 -0.09508156 C428.52726887 -0.09625858 440.8476051 -0.10088389 453.16794349 -0.10683203 C465.58480811 -0.11275198 478.00166916 -0.11495986 490.41853514 -0.11350138 C497.13374188 -0.11281253 503.84893674 -0.11380525 510.56414223 -0.11920547 C535.40180534 -0.13823937 560.18449045 -0.15331717 585 1 C585 11.89 585 22.78 585 34 C480.06 34 375.12 34 267 34 C267 171.28 267 308.56 267 450 C223.44 450 179.88 450 135 450 C135 347.7 135 245.4 135 140 C142.59 140.99 150.18 141.98 158 143 C160.64 143.33 163.28 143.66 166 144 C167 145 167 145 167.1241985 146.86827046 C167.12362892 148.10710803 167.12362892 148.10710803 167.12304783 149.37097263 C167.12503888 150.32044728 167.12702993 151.26992192 167.12908131 152.24816853 C167.12616847 153.30359362 167.12325563 154.35901872 167.12025452 155.44642639 C167.12153615 157.11379739 167.12153615 157.11379739 167.12284368 158.81485265 C167.12450174 162.5706762 167.1189718 166.3264559 167.11352539 170.08227539 C167.11324356 172.7621928 167.11335705 175.44210746 167.1139679 178.12202454 C167.11449332 183.90769474 167.11134456 189.6933537 167.10573006 195.47902107 C167.0976176 203.84421817 167.0950001 212.2094098 167.09374207 220.5746104 C167.09155114 234.14520234 167.08488997 247.71578828 167.07543945 261.28637695 C167.06626637 274.47224904 167.05918503 287.65811951 167.05493164 300.84399414 C167.05466892 301.65619421 167.05440619 302.46839429 167.05413551 303.30520649 C167.05283051 307.37960322 167.05156679 311.45399997 167.05032361 315.52839673 C167.03994974 349.3522698 167.02151077 383.17613172 167 417 C188.12 417 209.24 417 231 417 C231 317.01 231 217.02 231 114 C224.07 114 217.14 114 210 114 C179.48236373 113.41890253 149.4715482 108.63893719 119.75 101.875 C118.15285156 101.51281372 118.15285156 101.51281372 116.5234375 101.14331055 C111.4868937 99.96064526 106.65518177 98.63568469 101.84667969 96.72363281 C99.35562336 95.74749704 96.8107017 94.94519361 94.26904297 94.11230469 C77.57437072 88.53261012 62.23114113 80.31230352 48 70 C47.43732422 69.59813477 46.87464844 69.19626953 46.29492188 68.78222656 C27.23158255 55.07561932 9.85872126 35.96769158 3 13 C3 12.01 3 11.02 3 10 C2.34 10 1.68 10 1 10 C0.67 6.7 0.34 3.4 0 0 Z " fill="#050504" transform="translate(409,331)"/>
<path d="M0 0 C10.23 0 20.46 0 31 0 C31.01981934 2.45034668 31.03963867 4.90069336 31.06005859 7.42529297 C31.12746653 15.59164814 31.20509296 23.75788429 31.28752708 31.92410088 C31.33712018 36.86717899 31.38344797 41.81023944 31.421875 46.75341797 C31.45920195 51.53868724 31.50567825 56.3237938 31.55806351 61.10892105 C31.57635937 62.91938499 31.59155489 64.72988346 31.60334396 66.54040146 C31.70313894 81.35966292 31.88783084 96.80622879 36.125 111.125 C36.33527832 111.855979 36.54555664 112.58695801 36.76220703 113.34008789 C41.21103133 127.9268867 49.24593769 142.37427699 59.71484375 153.44140625 C61 155 61 155 61 157 C62.09441406 156.27296875 62.09441406 156.27296875 63.2109375 155.53125 C90.31973185 138.12807338 122.21174134 130.76090208 154.2265625 130.90234375 C155.31735107 130.90335083 156.40813965 130.90435791 157.53198242 130.90539551 C161.56299915 130.91058325 165.59400076 130.92454412 169.625 130.9375 C183.175625 130.9684375 183.175625 130.9684375 197 131 C197 160.37 197 189.74 197 220 C192.31334037 221.56221988 190.00237951 222.25318705 185.37548828 222.29052734 C184.29220245 222.30328705 183.20891663 222.31604675 182.09280396 222.32919312 C180.93038177 222.33141876 179.76795959 222.33364441 178.5703125 222.3359375 C177.34835175 222.3425943 176.12639099 222.3492511 174.86740112 222.35610962 C172.2734324 222.36623144 169.67943767 222.37092679 167.08544922 222.37060547 C163.20102988 222.37491564 159.31780735 222.41106536 155.43359375 222.44921875 C121.15282702 222.60326744 89.69000655 215.45997675 60 198 C59.74347656 198.57234375 59.48695313 199.1446875 59.22265625 199.734375 C57.87700384 202.2279162 56.2911535 204.1080004 54.4375 206.25 C36.98003044 227.8655214 31.95136428 254.25825698 31.79467773 281.43823242 C31.78477814 282.52248505 31.77487854 283.60673767 31.76467896 284.72384644 C31.73337436 288.26769919 31.70843074 291.81156529 31.68359375 295.35546875 C31.66299734 297.82839789 31.64200021 300.30132372 31.62062073 302.77424622 C31.56567741 309.25303452 31.51614686 315.73185312 31.46777344 322.21069336 C31.41735467 328.83384873 31.36177542 335.45696063 31.30664062 342.08007812 C31.19939882 355.0533495 31.09835717 368.02665822 31 381 C20.77 381 10.54 381 0 381 C-0.09095314 365.91612123 -0.1643565 350.83236954 -0.20724869 335.74828434 C-0.22771026 328.74151219 -0.25550846 321.73492483 -0.30175781 314.72827148 C-0.34650383 307.94602695 -0.36924526 301.16397297 -0.37950897 294.38158989 C-0.38680804 291.81488493 -0.4010559 289.24818845 -0.42292023 286.68156624 C-0.74141295 247.68557715 7.32710549 214.35166533 31 183 C32.67922836 180.67536387 34.34011014 178.3385351 36 176 C35.38253906 175.30777344 34.76507812 174.61554688 34.12890625 173.90234375 C27.37857369 166.10401435 22.05114867 157.97485315 17 149 C16.40960937 147.97132813 15.81921875 146.94265625 15.2109375 145.8828125 C10.74691383 137.94432705 7.84152087 129.95160906 5.4375 121.1875 C5.22061523 120.39851318 5.00373047 119.60952637 4.78027344 118.79663086 C0.3214145 102.28904194 -0.14446751 86.23229416 -0.09765625 69.23828125 C-0.09578813 67.23618098 -0.09436609 65.23408026 -0.09336853 63.23197937 C-0.08957439 57.99600941 -0.07977104 52.76006776 -0.06866455 47.52410889 C-0.05838328 42.16776919 -0.0538566 36.81142487 -0.04882812 31.45507812 C-0.03814561 20.97003772 -0.02057439 10.48502566 0 0 Z " fill="#040404" transform="translate(739,400)"/>
<path d="M0 0 C57.09 0 114.18 0 173 0 C173 15.51 173 31.02 173 47 C148.8674191 47.24625083 124.79012319 47.03119059 101.02050781 42.39111328 C98.94144453 41.98866531 96.85879121 41.61446461 94.7734375 41.24609375 C87.70202364 39.98348864 80.73289133 38.49778402 73.78125 36.67578125 C71.08923545 36.02168221 68.4230825 35.55545195 65.6875 35.125 C46.78141433 31.828694 28.17370079 22.92036512 12.5625 12 C11.71196045 11.41375854 11.71196045 11.41375854 10.84423828 10.81567383 C6.32278109 7.55848819 3.82733671 4.46522617 0 0 Z " fill="#FBFBFB" transform="translate(468,365)"/>
<path d="M0 0 C0.91644287 0.00523682 1.83288574 0.01047363 2.77709961 0.01586914 C3.66792236 0.0183667 4.55874512 0.02086426 5.4765625 0.0234375 C7.18573853 0.03709351 7.18573853 0.03709351 8.92944336 0.05102539 C14.34350586 0.08196289 14.34350586 0.08196289 19.86694336 0.11352539 C19.86694336 9.68352539 19.86694336 19.25352539 19.86694336 29.11352539 C-9.35862055 29.43119456 -9.35862055 29.43119456 -21.13305664 27.11352539 C-21.46305664 26.78352539 -21.79305664 26.45352539 -22.13305664 26.11352539 C-23.79615869 25.85978004 -25.46398044 25.63692768 -27.13305664 25.42602539 C-36.61629409 23.93287142 -46.67137656 20.69693543 -55.13305664 16.11352539 C-54.80305664 15.12352539 -54.47305664 14.13352539 -54.13305664 13.11352539 C-39.66493933 5.98297473 -22.15860006 2.94133663 -6.24633789 1.47290039 C-3.23893071 1.12574674 -2.74570979 0.14613197 0 0 Z " fill="#F4F4F4" transform="translate(885.133056640625,561.886474609375)"/>
<path d="M0 0 C0 15.51 0 31.02 0 47 C-0.66 47 -1.32 47 -2 47 C-2 32.15 -2 17.3 -2 2 C-52.16 2 -102.32 2 -154 2 C-154 1.67 -154 1.34 -154 1 C-134.21620294 0.86953641 -114.43240539 0.73914764 -94.64860725 0.60884857 C-85.46316632 0.54835012 -76.27772555 0.48782695 -67.09228516 0.42724609 C-59.08858582 0.37445925 -51.08488618 0.32171827 -43.08118618 0.26903296 C-38.84120402 0.24112115 -34.60122202 0.21318598 -30.36124039 0.18519592 C-26.37390555 0.15887443 -22.38657032 0.13261407 -18.39923477 0.10640144 C-16.93264755 0.09674921 -15.46606048 0.08707427 -13.99947357 0.07737541 C-12.00332173 0.06417775 -10.0071693 0.05106828 -8.01101685 0.03796387 C-6.33243182 0.02690235 -6.33243182 0.02690235 -4.61993599 0.01561737 C-3.07997589 0.00643771 -1.53998746 0 0 0 Z " fill="#EDEDED" transform="translate(641,365)"/>
<path d="M0 0 C2.31 0.33 4.62 0.66 7 1 C7.33 2.65 7.66 4.3 8 6 C5 6 5 6 3.61328125 4.6875 C2.40885417 3.125 1.20442708 1.5625 0 0 Z " fill="#E8E8E8" transform="translate(468,365)"/>
<path d="M0 0 C4.34464536 0.60825035 8.67551867 1.26167392 13 2 C13 2.33 13 2.66 13 3 C9.37 3 5.74 3 2 3 C2 2.34 2 1.68 2 1 C1.34 0.67 0.68 0.34 0 0 Z " fill="#0C0C0B" transform="translate(618,412)"/>
</svg>
