<svg id="svg" version="1.1" width="400" height="318.8965517241379" viewBox="0 0 400 318.8965517241379" xmlns="http://www.w3.org/2000/svg" xmlns:xlink="http://www.w3.org/1999/xlink"><g id="svgg"><path id="path0" d="M118.196 97.266 C 117.945 97.672,119.320 101.245,120.880 104.243 C 123.253 108.805,126.340 112.040,132.855 116.793 C 137.563 120.227,147.647 124.294,155.183 125.798 C 162.804 127.319,173.969 128.549,180.149 128.549 C 181.766 128.549,182.173 128.658,182.445 129.166 C 183.056 130.308,182.889 213.238,182.274 213.853 C 181.760 214.367,166.354 214.643,165.098 214.160 C 164.642 213.985,164.593 210.336,164.593 176.103 C 164.593 146.293,164.508 138.133,164.195 137.737 C 163.932 137.407,162.813 137.112,160.925 136.877 C 159.346 136.680,157.516 136.429,156.858 136.320 L 155.662 136.121 155.662 179.531 L 155.662 222.941 169.617 223.105 C 177.293 223.195,185.358 223.354,187.539 223.457 C 189.721 223.560,191.838 223.560,192.244 223.459 L 192.982 223.273 192.982 164.896 C 192.982 114.459,193.045 106.495,193.440 106.343 C 193.692 106.247,214.039 106.072,238.656 105.955 L 283.413 105.742 283.413 101.435 L 283.413 97.129 200.896 97.049 C 150.029 96.999,118.309 97.083,118.196 97.266 M183.573 112.759 L 183.573 119.458 178.150 119.375 C 161.035 119.112,145.918 115.465,137.732 109.624 C 132.164 105.650,130.787 105.883,159.241 105.979 L 183.573 106.061 183.573 112.759 M211.377 116.321 C 211.043 116.655,211.134 137.858,211.486 141.946 C 212.220 150.467,215.245 158.234,220.042 163.916 C 221.702 165.883,221.818 165.360,218.789 169.594 C 215.474 174.229,213.665 178.291,212.138 184.530 C 211.375 187.646,211.140 193.792,211.230 208.293 L 211.324 223.445 215.701 223.534 C 221.052 223.642,220.389 226.231,220.502 204.785 L 220.594 187.400 221.463 184.598 C 222.587 180.973,223.838 178.239,225.528 175.714 C 228.206 171.710,228.332 171.663,231.525 173.473 C 236.334 176.198,240.329 177.232,249.601 178.152 C 254.328 178.621,265.822 178.810,266.800 178.435 C 267.248 178.263,267.305 176.843,267.305 165.713 L 267.305 153.184 266.587 152.992 C 265.436 152.684,255.235 152.762,251.629 153.107 C 243.187 153.915,236.522 155.629,231.606 158.256 C 228.521 159.905,228.286 159.842,226.089 156.778 C 221.256 150.037,220.627 147.108,220.506 130.781 C 220.384 114.153,221.006 116.108,215.837 116.108 C 213.501 116.108,211.494 116.204,211.377 116.321 M258.304 165.751 C 258.413 170.064,258.830 169.796,252.691 169.362 C 245.337 168.842,239.218 167.529,237.817 166.170 C 236.876 165.257,238.897 164.468,245.136 163.313 C 250.726 162.278,252.086 162.123,255.183 162.162 L 258.214 162.201 258.304 165.751 " stroke="none" fill="#f7f7f7" fill-rule="evenodd"></path><path id="path1" d="M0.000 159.490 L 0.000 318.979 200.000 318.979 L 400.000 318.979 400.000 159.490 L 400.000 0.000 200.000 0.000 L 0.000 0.000 0.000 159.490 M283.812 96.733 C 284.295 97.115,284.371 105.472,283.898 106.220 C 283.633 106.640,278.142 106.718,238.688 106.858 L 193.780 107.018 193.701 165.231 C 193.630 217.389,193.571 223.483,193.128 223.810 C 192.487 224.284,155.710 224.006,155.103 223.523 C 154.785 223.271,154.719 214.219,154.784 179.466 L 154.864 135.726 156.300 135.758 C 159.220 135.822,164.637 136.716,164.932 137.181 C 165.101 137.449,165.224 153.350,165.226 175.518 L 165.231 213.397 173.525 213.397 L 181.818 213.397 181.818 171.333 L 181.818 129.268 177.273 129.060 C 155.314 128.052,138.080 122.965,129.187 114.866 C 128.573 114.306,127.691 113.644,127.227 113.393 C 123.903 111.597,117.016 100.210,117.441 97.214 L 117.544 96.491 150.877 96.331 C 199.522 96.098,283.327 96.351,283.812 96.733 M135.893 107.097 C 135.906 107.492,139.747 110.257,141.627 111.225 C 146.847 113.912,153.414 115.983,160.046 117.033 C 161.318 117.234,163.255 117.540,164.353 117.714 C 167.063 118.141,173.399 118.657,178.708 118.882 L 183.094 119.068 183.094 112.963 L 183.094 106.858 159.490 106.858 C 146.507 106.858,135.889 106.966,135.893 107.097 M220.635 115.869 C 220.777 116.089,220.977 122.584,221.080 130.303 C 221.197 139.088,221.396 144.696,221.612 145.295 C 221.802 145.821,222.214 147.113,222.528 148.166 C 223.666 151.982,227.678 158.852,228.770 158.852 C 228.980 158.852,230.380 158.224,231.881 157.457 C 236.749 154.967,241.971 153.625,250.678 152.625 C 256.315 151.978,266.899 152.055,267.735 152.750 C 268.429 153.327,268.551 177.994,267.863 178.558 C 267.129 179.159,259.746 179.625,256.459 179.278 C 254.793 179.102,252.484 178.956,251.329 178.953 C 250.174 178.950,248.452 178.812,247.501 178.646 C 246.551 178.480,244.266 178.109,242.424 177.820 C 238.343 177.182,236.236 176.490,231.954 174.386 L 228.661 172.768 227.807 173.705 C 226.103 175.573,223.773 179.723,222.769 182.678 C 221.252 187.148,221.298 186.522,221.091 205.674 C 220.920 221.423,220.827 223.989,220.415 224.249 C 219.662 224.725,211.715 224.642,211.044 224.151 C 210.132 223.484,210.436 189.046,211.390 184.848 C 212.815 178.584,214.978 173.747,218.655 168.600 L 220.692 165.748 219.507 164.294 C 214.769 158.476,211.761 151.007,210.866 142.836 C 210.376 138.370,210.412 116.350,210.909 115.853 C 211.458 115.304,220.279 115.318,220.635 115.869 M252.632 162.726 C 242.921 164.091,243.156 164.046,239.952 165.164 C 238.118 165.804,238.234 166.051,240.735 166.823 C 244.666 168.037,255.871 169.475,257.257 168.944 C 257.675 168.783,257.743 168.230,257.667 165.636 L 257.576 162.520 256.140 162.477 C 255.351 162.454,253.772 162.566,252.632 162.726 " stroke="none" fill="#040404" fill-rule="evenodd"></path><path id="path2" d="M192.105 96.571 C 196.623 96.621,204.015 96.621,208.533 96.571 C 213.050 96.521,209.354 96.480,200.319 96.480 C 191.284 96.480,187.588 96.521,192.105 96.571 M135.137 106.459 C 135.003 106.676,152.208 106.674,174.641 106.453 C 179.378 106.407,172.461 106.335,159.269 106.294 C 146.078 106.254,135.218 106.328,135.137 106.459 M233.573 106.459 C 242.652 106.506,257.508 106.506,266.587 106.459 C 275.666 106.412,268.238 106.374,250.080 106.374 C 231.922 106.374,224.494 106.412,233.573 106.459 M183.412 112.983 C 183.325 116.440,183.365 119.156,183.500 119.021 C 183.636 118.885,183.707 116.057,183.659 112.736 L 183.571 106.699 183.412 112.983 M177.592 128.774 C 177.986 128.850,178.632 128.850,179.027 128.774 C 179.422 128.698,179.099 128.636,178.309 128.636 C 177.520 128.636,177.197 128.698,177.592 128.774 M182.292 171.451 C 182.292 194.609,182.330 204.036,182.376 192.399 C 182.423 180.763,182.423 161.816,182.376 150.294 C 182.330 138.773,182.292 148.293,182.292 171.451 M210.926 139.234 C 210.929 139.936,210.995 140.186,211.071 139.789 C 211.147 139.392,211.144 138.818,211.064 138.513 C 210.985 138.208,210.922 138.533,210.926 139.234 M267.769 165.550 C 267.769 172.480,267.811 175.315,267.862 171.850 C 267.914 168.385,267.914 162.715,267.862 159.250 C 267.811 155.785,267.769 158.620,267.769 165.550 M227.880 158.772 C 228.215 159.167,228.717 159.478,228.997 159.464 C 229.429 159.443,229.433 159.413,229.027 159.263 C 228.764 159.167,228.262 158.855,227.911 158.571 C 227.278 158.059,227.278 158.060,227.880 158.772 M258.453 179.180 C 259.111 179.249,260.187 179.249,260.845 179.180 C 261.503 179.111,260.965 179.055,259.649 179.055 C 258.333 179.055,257.795 179.111,258.453 179.180 M210.926 191.547 C 210.929 192.249,210.995 192.498,211.071 192.102 C 211.147 191.705,211.144 191.131,211.064 190.826 C 210.985 190.521,210.922 190.845,210.926 191.547 M213.463 224.160 C 214.639 224.221,216.649 224.221,217.929 224.161 C 219.208 224.100,218.246 224.050,215.789 224.049 C 213.333 224.049,212.286 224.098,213.463 224.160 " stroke="none" fill="#7c7c7c" fill-rule="evenodd"></path><path id="path3" d="M150.877 96.330 L 117.544 96.491 117.441 97.214 C 117.016 100.210,123.903 111.597,127.227 113.393 C 127.691 113.644,128.573 114.306,129.187 114.866 C 131.881 117.319,140.379 122.200,143.222 122.926 L 144.019 123.129 143.222 122.751 C 134.110 118.426,131.271 116.594,125.770 111.488 C 122.505 108.458,118.392 101.465,117.838 98.003 L 117.622 96.651 148.843 96.605 C 166.014 96.579,188.246 96.464,198.246 96.348 L 216.427 96.138 200.319 96.153 C 191.459 96.161,169.211 96.241,150.877 96.330 M250.080 96.649 L 283.732 96.810 283.821 101.251 C 283.879 104.119,283.788 105.813,283.566 106.035 C 283.324 106.277,269.836 106.427,238.341 106.539 L 193.461 106.699 193.380 164.881 C 193.326 204.393,193.194 223.190,192.970 223.460 C 192.552 223.964,156.065 223.716,155.423 223.205 C 155.107 222.955,155.024 213.797,155.024 179.341 L 155.024 135.794 157.018 135.972 C 158.628 136.116,158.805 136.090,157.941 135.840 C 157.353 135.670,156.420 135.575,155.868 135.628 L 154.864 135.726 154.784 179.466 C 154.719 214.219,154.785 223.271,155.103 223.523 C 155.710 224.006,192.487 224.284,193.128 223.810 C 193.571 223.483,193.630 217.389,193.701 165.231 L 193.780 107.018 238.688 106.858 C 278.142 106.718,283.633 106.640,283.898 106.220 C 284.357 105.495,284.295 97.182,283.828 96.715 C 283.534 96.421,275.660 96.350,249.936 96.409 L 216.427 96.487 250.080 96.649 M135.247 106.798 C 135.247 107.924,145.322 114.115,146.019 113.418 C 146.103 113.333,145.544 113.015,144.777 112.710 C 141.621 111.455,135.918 107.852,135.893 107.097 C 135.889 106.966,146.507 106.858,159.490 106.858 L 183.094 106.858 183.094 112.908 L 183.094 118.957 179.984 119.065 L 176.874 119.172 180.064 119.155 L 183.254 119.139 183.340 112.839 L 183.427 106.539 159.337 106.539 C 146.088 106.539,135.247 106.656,135.247 106.798 M146.411 113.701 C 146.411 113.888,152.355 115.794,152.875 115.774 C 153.202 115.761,146.894 113.557,146.529 113.557 C 146.464 113.557,146.411 113.622,146.411 113.701 M210.909 115.853 C 210.494 116.268,210.402 138.704,210.800 142.424 C 210.913 143.477,211.005 137.951,211.005 130.144 L 211.005 115.949 215.839 115.949 C 218.498 115.949,220.607 115.841,220.525 115.710 C 220.267 115.292,211.337 115.425,210.909 115.853 M154.067 116.108 C 154.506 116.249,155.152 116.364,155.502 116.364 C 156.008 116.364,155.974 116.311,155.343 116.108 C 154.904 115.968,154.258 115.853,153.907 115.853 C 153.402 115.853,153.436 115.906,154.067 116.108 M158.373 117.065 C 158.900 117.199,159.689 117.312,160.128 117.315 L 160.925 117.321 160.128 117.065 C 159.689 116.925,158.900 116.813,158.373 116.816 L 157.416 116.822 158.373 117.065 M220.813 129.027 C 220.795 135.869,220.878 142.113,220.997 142.903 C 221.200 144.256,221.148 120.594,220.941 117.863 C 220.888 117.161,220.831 122.185,220.813 129.027 M162.520 117.722 C 163.222 117.867,164.155 117.977,164.593 117.966 C 165.859 117.935,163.768 117.460,162.360 117.459 L 161.244 117.458 162.520 117.722 M167.464 118.328 C 168.254 118.465,170.550 118.655,172.568 118.752 C 175.105 118.873,175.597 118.850,174.163 118.677 C 171.103 118.308,165.728 118.028,167.464 118.328 M144.498 123.445 C 144.761 123.615,145.191 123.754,145.455 123.754 C 145.880 123.754,145.880 123.720,145.455 123.445 C 145.191 123.275,144.761 123.136,144.498 123.136 C 144.072 123.136,144.072 123.170,144.498 123.445 M146.093 123.892 C 146.093 124.076,150.413 125.364,150.927 125.333 C 151.163 125.319,150.279 124.963,148.963 124.542 C 146.529 123.763,146.093 123.664,146.093 123.892 M151.994 125.678 C 152.344 125.829,152.919 125.948,153.270 125.943 C 153.782 125.935,153.751 125.883,153.110 125.678 C 152.019 125.329,151.181 125.329,151.994 125.678 M154.545 126.301 C 155.158 126.578,156.866 126.759,156.592 126.518 C 156.519 126.453,155.885 126.313,155.183 126.206 C 154.294 126.071,154.101 126.099,154.545 126.301 M159.330 127.273 C 159.856 127.407,160.718 127.517,161.244 127.517 C 162.049 127.518,161.998 127.476,160.925 127.254 C 159.309 126.920,158.004 126.935,159.330 127.273 M163.636 127.902 C 164.416 128.160,167.700 128.343,167.438 128.114 C 167.364 128.050,166.300 127.917,165.072 127.818 C 163.713 127.709,163.151 127.741,163.636 127.902 M170.016 128.544 C 170.981 128.687,174.031 128.905,176.794 129.029 L 181.818 129.254 181.818 171.325 L 181.818 213.397 173.525 213.397 L 165.231 213.397 165.231 175.461 C 165.231 143.044,165.165 137.459,164.776 137.071 C 164.349 136.644,160.216 136.009,159.903 136.323 C 159.823 136.402,160.739 136.569,161.937 136.693 C 163.135 136.818,164.294 137.063,164.514 137.239 C 164.829 137.491,164.912 145.549,164.912 175.600 L 164.912 213.642 165.630 213.834 C 166.566 214.085,180.484 214.085,181.421 213.834 L 182.139 213.641 182.059 171.334 L 181.978 129.027 178.628 128.817 C 171.818 128.389,168.185 128.274,170.016 128.544 M211.234 145.295 C 211.231 145.821,211.343 146.611,211.483 147.049 L 211.739 147.847 211.733 147.049 C 211.729 146.611,211.617 145.821,211.483 145.295 L 211.240 144.338 211.234 145.295 M221.571 145.774 C 221.682 146.388,221.899 147.177,222.053 147.528 C 222.244 147.966,222.268 147.816,222.129 147.049 C 222.018 146.435,221.801 145.646,221.648 145.295 C 221.456 144.857,221.432 145.007,221.571 145.774 M211.827 148.291 C 211.791 148.940,213.096 153.198,213.276 153.018 C 213.361 152.934,213.123 151.880,212.749 150.675 C 211.831 147.723,211.856 147.788,211.827 148.291 M222.967 150.430 C 222.967 150.924,225.648 155.676,226.713 157.068 C 228.545 159.463,228.521 159.460,231.876 157.780 C 233.502 156.967,236.043 155.923,237.523 155.462 C 239.004 155.000,240.147 154.554,240.064 154.471 C 239.774 154.181,234.587 156.073,231.881 157.457 C 230.380 158.224,228.980 158.852,228.770 158.852 C 228.183 158.852,225.560 155.136,224.322 152.552 C 223.313 150.445,222.967 149.902,222.967 150.430 M251.994 152.433 C 251.029 152.542,253.971 152.632,258.533 152.632 C 263.094 152.632,267.077 152.735,267.384 152.861 C 267.902 153.074,267.943 153.974,267.943 165.355 C 267.943 178.054,267.904 178.612,267.031 178.654 C 266.684 178.670,266.645 178.734,266.917 178.843 C 268.202 179.359,268.262 178.774,268.262 165.710 C 268.262 154.459,268.208 153.144,267.735 152.750 C 267.164 152.276,255.472 152.040,251.994 152.433 M246.730 153.110 L 245.455 153.338 246.571 153.346 C 247.185 153.350,248.118 153.244,248.644 153.110 C 249.942 152.780,248.575 152.780,246.730 153.110 M213.415 153.552 C 213.386 154.004,216.138 159.587,216.735 160.287 C 217.093 160.706,217.050 160.526,216.609 159.762 C 216.240 159.122,215.374 157.400,214.686 155.934 C 213.997 154.469,213.425 153.396,213.415 153.552 M241.467 154.067 C 240.395 154.410,241.553 154.410,242.903 154.067 C 243.762 153.848,243.778 153.823,243.062 153.818 C 242.624 153.814,241.906 153.927,241.467 154.067 M217.761 161.962 C 218.064 162.444,218.848 163.493,219.502 164.294 L 220.692 165.748 218.655 168.600 C 216.604 171.471,213.962 176.192,213.579 177.671 C 213.465 178.110,213.857 177.464,214.450 176.236 C 215.812 173.413,217.864 170.065,219.684 167.698 L 221.098 165.859 220.421 164.987 C 220.049 164.507,219.236 163.433,218.614 162.600 C 217.375 160.938,216.891 160.576,217.761 161.962 M251.196 162.679 C 249.655 162.891,249.645 162.899,250.877 162.930 C 251.579 162.947,252.727 162.843,253.429 162.698 C 255.057 162.361,253.605 162.349,251.196 162.679 M257.576 165.630 L 257.576 168.900 254.067 168.859 L 250.558 168.818 253.808 169.140 C 258.253 169.580,258.054 169.741,258.054 165.720 C 258.054 163.872,257.947 162.360,257.815 162.360 C 257.683 162.360,257.576 163.831,257.576 165.630 M239.155 165.122 C 238.497 165.395,237.959 165.731,237.959 165.869 C 237.959 166.184,238.949 166.580,239.174 166.355 C 239.266 166.263,239.173 166.188,238.969 166.188 C 238.192 166.188,238.643 165.618,239.793 165.146 C 240.451 164.876,240.845 164.649,240.670 164.641 C 240.494 164.633,239.813 164.849,239.155 165.122 M242.584 167.633 C 243.285 167.864,244.219 168.052,244.657 168.050 C 245.096 168.049,244.665 167.851,243.700 167.610 C 241.507 167.063,240.892 167.075,242.584 167.633 M246.730 168.439 C 247.432 168.585,248.437 168.694,248.963 168.682 C 249.681 168.666,249.561 168.596,248.485 168.405 C 246.560 168.062,245.051 168.092,246.730 168.439 M227.592 173.525 C 227.087 174.051,226.780 174.482,226.909 174.482 C 227.038 174.482,227.490 174.087,227.913 173.604 L 228.683 172.727 230.291 173.604 C 232.436 174.775,232.792 174.717,230.781 173.525 C 228.803 172.351,228.716 172.351,227.592 173.525 M225.754 176.018 C 224.830 177.415,222.962 181.040,222.976 181.410 C 222.981 181.547,223.594 180.510,224.338 179.107 C 225.082 177.703,225.955 176.160,226.279 175.678 C 226.603 175.195,226.798 174.801,226.714 174.801 C 226.629 174.801,226.197 175.349,225.754 176.018 M238.278 177.008 C 238.541 177.154,239.474 177.358,240.351 177.461 C 241.340 177.577,241.643 177.551,241.148 177.393 C 239.916 176.998,237.732 176.705,238.278 177.008 M243.222 177.990 C 243.748 178.124,244.537 178.234,244.976 178.234 C 245.687 178.234,245.670 178.208,244.817 177.990 C 244.290 177.857,243.501 177.747,243.062 177.747 C 242.351 177.747,242.368 177.773,243.222 177.990 M247.687 178.627 C 248.645 178.872,253.175 179.049,252.924 178.832 C 252.851 178.769,251.427 178.642,249.761 178.550 C 248.094 178.458,247.161 178.493,247.687 178.627 M212.478 180.751 C 211.636 183.597,211.175 185.650,211.199 186.443 C 211.209 186.794,211.480 185.933,211.800 184.530 C 212.121 183.126,212.621 181.282,212.913 180.432 C 213.204 179.582,213.371 178.815,213.283 178.727 C 213.195 178.639,212.833 179.550,212.478 180.751 M255.268 179.176 C 255.752 179.250,256.470 179.248,256.862 179.172 C 257.255 179.096,256.858 179.036,255.981 179.039 C 255.104 179.041,254.783 179.103,255.268 179.176 M262.600 179.176 C 263.082 179.249,263.872 179.249,264.354 179.176 C 264.837 179.103,264.442 179.043,263.477 179.043 C 262.512 179.043,262.117 179.103,262.600 179.176 M258.772 179.495 C 259.254 179.568,260.044 179.568,260.526 179.495 C 261.009 179.422,260.614 179.362,259.649 179.362 C 258.684 179.362,258.289 179.422,258.772 179.495 M222.488 182.456 C 222.368 182.833,222.342 183.214,222.430 183.302 C 222.518 183.389,222.687 183.152,222.807 182.775 C 222.927 182.398,222.953 182.017,222.865 181.930 C 222.778 181.842,222.608 182.079,222.488 182.456 M221.571 185.686 C 221.459 186.246,221.426 186.764,221.499 186.836 C 221.571 186.908,221.729 186.516,221.850 185.965 C 221.971 185.414,222.004 184.896,221.923 184.815 C 221.841 184.733,221.683 185.125,221.571 185.686 M210.734 189.394 C 210.170 195.370,210.505 223.889,211.143 224.231 C 212.493 224.954,220.734 224.605,220.734 223.826 C 220.734 223.592,220.607 223.604,220.351 223.860 C 219.754 224.456,211.681 224.386,211.178 223.780 C 210.886 223.429,210.820 218.990,210.900 205.279 C 210.957 195.358,210.990 187.241,210.971 187.241 C 210.953 187.241,210.846 188.210,210.734 189.394 M220.941 188.908 C 220.830 189.833,220.768 197.911,220.804 206.858 L 220.869 223.126 221.040 205.263 C 221.135 195.439,221.197 187.361,221.178 187.313 C 221.159 187.265,221.052 187.982,220.941 188.908 " stroke="none" fill="#565656" fill-rule="evenodd"></path><path id="path4" d="M117.839 97.077 C 116.990 99.289,123.732 110.394,127.597 113.151 C 128.279 113.637,129.669 114.694,130.687 115.499 C 132.709 117.099,134.290 118.176,134.290 117.954 C 134.290 117.875,133.608 117.322,132.775 116.725 C 126.563 112.268,123.242 108.783,120.880 104.243 C 119.209 101.033,117.920 97.582,118.263 97.240 C 118.412 97.091,155.632 97.005,200.973 97.049 L 283.413 97.129 283.587 101.276 L 283.761 105.423 283.826 101.541 C 283.862 99.406,283.804 97.433,283.698 97.155 C 283.427 96.450,118.109 96.372,117.839 97.077 M238.656 105.929 C 214.039 106.060,193.692 106.247,193.440 106.343 C 193.045 106.495,192.982 114.456,192.982 164.876 C 192.982 204.411,192.877 223.285,192.656 223.394 C 192.476 223.484,192.512 223.520,192.735 223.474 C 193.063 223.408,193.158 212.021,193.223 165.018 L 193.303 106.644 211.245 106.432 C 221.113 106.316,241.423 106.221,256.380 106.220 C 274.295 106.220,283.573 106.111,283.573 105.901 C 283.573 105.726,283.537 105.606,283.493 105.636 C 283.449 105.665,263.272 105.797,238.656 105.929 M134.721 106.389 C 134.345 107.370,142.092 113.198,142.813 112.477 C 142.911 112.379,142.648 112.166,142.229 112.003 C 139.960 111.123,134.729 107.120,135.089 106.538 C 135.403 106.029,182.848 106.108,183.389 106.619 C 183.730 106.941,183.784 106.925,183.666 106.539 C 183.440 105.800,135.004 105.652,134.721 106.389 M144.015 113.141 C 145.223 113.794,149.811 115.476,150.328 115.455 C 150.542 115.446,149.426 114.969,147.847 114.394 C 146.268 113.819,144.663 113.181,144.279 112.974 C 143.896 112.768,143.466 112.605,143.322 112.612 C 143.179 112.619,143.491 112.857,144.015 113.141 M151.196 115.754 C 151.459 115.904,152.249 116.114,152.951 116.222 C 153.755 116.345,153.991 116.319,153.589 116.151 C 152.655 115.763,150.617 115.424,151.196 115.754 M211.372 116.029 C 211.291 116.160,213.171 116.224,215.550 116.170 C 218.848 116.096,219.939 116.172,220.141 116.489 C 220.286 116.718,220.415 122.576,220.428 129.506 C 220.441 136.435,220.551 142.667,220.672 143.354 C 220.794 144.041,220.847 138.380,220.792 130.773 C 220.732 122.689,220.562 116.703,220.382 116.366 C 220.059 115.762,211.731 115.451,211.372 116.029 M155.024 116.746 C 155.463 116.887,156.108 117.002,156.459 117.002 C 156.964 117.002,156.931 116.949,156.300 116.746 C 155.861 116.606,155.215 116.491,154.864 116.491 C 154.359 116.491,154.392 116.544,155.024 116.746 M210.988 127.432 C 210.989 133.397,211.032 135.792,211.084 132.755 C 211.137 129.717,211.136 124.837,211.084 121.909 C 211.031 118.982,210.988 121.467,210.988 127.432 M157.895 117.384 C 158.333 117.525,159.195 117.638,159.809 117.635 L 160.925 117.630 159.649 117.366 C 157.945 117.014,156.775 117.026,157.895 117.384 M162.093 118.004 C 162.559 118.151,163.995 118.351,165.282 118.448 C 166.989 118.577,167.235 118.556,166.188 118.369 C 163.796 117.941,161.141 117.704,162.093 118.004 M134.769 118.285 C 135.206 118.719,138.948 120.743,140.510 121.389 C 142.477 122.203,141.788 121.770,137.959 119.785 C 136.029 118.785,134.593 118.110,134.769 118.285 M169.856 118.992 C 170.909 119.122,172.560 119.223,173.525 119.215 L 175.279 119.201 173.206 118.968 C 172.065 118.840,170.415 118.739,169.537 118.744 L 167.943 118.754 169.856 118.992 M180.383 119.298 L 177.193 119.494 180.284 119.555 C 182.071 119.591,183.459 119.483,183.573 119.298 C 183.681 119.123,183.725 119.007,183.671 119.041 C 183.617 119.075,182.137 119.191,180.383 119.298 M146.252 123.603 C 147.329 124.111,148.546 124.275,147.687 123.797 C 147.424 123.651,146.778 123.446,146.252 123.342 L 145.295 123.152 146.252 123.603 M148.804 124.402 C 149.155 124.553,149.657 124.676,149.920 124.676 C 150.222 124.676,150.163 124.575,149.761 124.402 C 149.410 124.251,148.907 124.128,148.644 124.128 C 148.343 124.128,148.402 124.229,148.804 124.402 M151.037 124.997 C 151.388 125.150,152.177 125.367,152.791 125.479 C 153.557 125.618,153.707 125.593,153.270 125.402 C 152.919 125.248,152.129 125.032,151.515 124.920 C 150.749 124.781,150.599 124.805,151.037 124.997 M154.094 125.795 C 154.167 125.859,154.801 126.000,155.502 126.106 C 156.392 126.242,156.585 126.213,156.140 126.012 C 155.528 125.734,153.820 125.553,154.094 125.795 M158.054 126.635 C 158.581 126.769,159.370 126.878,159.809 126.878 C 160.520 126.878,160.503 126.852,159.649 126.635 C 159.123 126.501,158.333 126.391,157.895 126.391 C 157.183 126.391,157.201 126.418,158.054 126.635 M162.706 127.393 C 162.779 127.459,163.844 127.594,165.072 127.692 C 166.788 127.830,167.009 127.806,166.029 127.590 C 164.739 127.306,162.461 127.171,162.706 127.393 M170.654 128.241 C 171.794 128.369,173.589 128.468,174.641 128.461 L 176.555 128.448 174.322 128.219 C 173.094 128.093,171.300 127.994,170.335 127.999 L 168.581 128.008 170.654 128.241 M180.698 128.786 C 181.397 128.857,182.077 129.084,182.208 129.290 C 182.690 130.048,182.503 213.281,182.018 213.683 C 181.709 213.939,179.148 214.021,173.326 213.961 L 165.072 213.876 164.912 175.666 C 164.736 133.428,164.930 136.805,162.679 136.898 L 161.563 136.944 162.679 137.070 C 164.717 137.301,164.593 134.771,164.593 176.103 C 164.593 210.336,164.642 213.985,165.098 214.160 C 166.354 214.643,181.760 214.367,182.274 213.853 C 182.889 213.238,183.056 130.308,182.445 129.166 C 182.190 128.690,181.808 128.561,180.770 128.602 L 179.426 128.656 180.698 128.786 M155.218 136.390 C 154.908 137.197,155.002 222.439,155.314 222.930 C 155.703 223.545,156.541 223.576,175.439 223.678 C 186.046 223.735,190.606 223.675,187.879 223.516 C 185.510 223.377,177.293 223.191,169.617 223.103 L 155.662 222.941 155.662 179.595 L 155.662 136.249 156.380 136.110 C 157.019 135.987,157.006 135.967,156.254 135.929 C 155.749 135.903,155.334 136.087,155.218 136.390 M158.373 136.541 C 159.989 136.876,161.295 136.861,159.968 136.523 C 159.442 136.389,158.581 136.279,158.054 136.279 C 157.250 136.278,157.300 136.320,158.373 136.541 M211.266 141.627 C 211.266 142.767,211.324 143.234,211.395 142.663 C 211.466 142.093,211.466 141.160,211.395 140.590 C 211.324 140.020,211.266 140.486,211.266 141.627 M221.070 145.199 C 221.049 145.859,222.522 150.530,222.960 151.196 C 223.369 151.816,223.380 151.330,222.975 150.573 C 222.804 150.254,222.309 148.792,221.875 147.325 C 221.441 145.858,221.079 144.901,221.070 145.199 M211.856 146.730 C 211.873 147.559,212.375 148.921,212.386 148.166 C 212.391 147.815,212.272 147.241,212.121 146.890 C 211.953 146.499,211.851 146.437,211.856 146.730 M223.288 152.020 C 223.292 152.392,225.160 155.662,225.368 155.662 C 225.454 155.662,225.067 154.837,224.508 153.828 C 223.328 151.697,223.285 151.632,223.288 152.020 M257.974 152.709 C 259.246 152.769,261.328 152.769,262.600 152.709 C 263.872 152.648,262.831 152.599,260.287 152.599 C 257.743 152.599,256.703 152.648,257.974 152.709 M251.116 153.020 C 251.599 153.093,252.388 153.093,252.871 153.020 C 253.353 152.946,252.959 152.887,251.994 152.887 C 251.029 152.887,250.634 152.946,251.116 153.020 M266.746 153.011 C 267.470 153.200,267.626 178.126,266.906 178.417 C 266.668 178.513,266.732 178.588,267.065 178.603 C 267.588 178.627,267.624 177.810,267.624 165.710 L 267.624 152.791 266.906 152.828 C 266.366 152.856,266.326 152.901,266.746 153.011 M245.136 153.748 C 244.276 153.967,244.260 153.992,244.976 153.997 C 245.415 154.001,246.132 153.888,246.571 153.748 C 247.643 153.405,246.485 153.405,245.136 153.748 M214.062 154.226 C 214.062 154.402,214.337 155.048,214.673 155.662 C 215.009 156.276,215.284 156.635,215.284 156.459 C 215.284 156.284,215.009 155.638,214.673 155.024 C 214.337 154.410,214.062 154.051,214.062 154.226 M240.191 154.709 C 239.855 154.930,240.044 154.962,240.829 154.818 C 242.205 154.566,242.465 154.384,241.441 154.391 C 241.017 154.394,240.455 154.537,240.191 154.709 M226.520 157.431 C 227.093 158.228,227.775 159.053,228.037 159.265 C 228.299 159.476,227.894 158.824,227.137 157.815 C 225.508 155.644,225.018 155.339,226.520 157.431 M231.021 158.223 C 230.100 158.751,229.346 159.254,229.346 159.339 C 229.346 159.465,232.660 157.740,233.147 157.360 C 233.752 156.889,232.365 157.452,231.021 158.223 M216.546 159.330 C 216.718 159.681,217.093 160.255,217.379 160.606 L 217.898 161.244 217.585 160.606 C 217.413 160.255,217.038 159.681,216.752 159.330 L 216.233 158.692 216.546 159.330 M251.196 162.355 C 250.670 162.486,251.531 162.521,253.110 162.433 C 254.689 162.344,256.041 162.220,256.114 162.157 C 256.358 161.945,252.166 162.114,251.196 162.355 M257.667 162.283 C 257.968 162.495,258.053 163.462,257.986 165.895 L 257.895 169.219 256.619 169.412 L 255.343 169.606 256.459 169.647 C 258.325 169.714,258.406 169.541,258.305 165.710 C 258.232 162.961,258.116 162.226,257.735 162.123 C 257.369 162.023,257.353 162.061,257.667 162.283 M219.739 163.917 C 221.348 166.020,221.395 165.572,219.271 168.422 C 218.291 169.737,217.354 171.100,217.188 171.451 C 216.966 171.923,217.028 171.897,217.429 171.349 C 217.726 170.943,218.735 169.579,219.671 168.320 C 221.711 165.574,221.701 165.777,219.886 163.796 L 218.424 162.201 219.739 163.917 M246.411 162.998 C 245.085 163.336,246.391 163.351,248.006 163.017 C 249.079 162.795,249.130 162.753,248.325 162.754 C 247.799 162.754,246.938 162.864,246.411 162.998 M242.807 163.632 C 242.228 163.769,241.664 163.971,241.554 164.081 C 241.343 164.293,242.998 164.013,244.338 163.611 C 245.445 163.279,244.227 163.296,242.807 163.632 M237.839 165.322 C 237.160 165.818,237.837 166.605,239.234 166.945 C 239.803 167.083,239.734 167.002,238.995 166.662 C 237.830 166.127,237.697 165.735,238.517 165.257 C 238.824 165.078,238.923 164.927,238.737 164.922 C 238.551 164.917,238.147 165.097,237.839 165.322 M242.903 168.087 C 243.515 168.365,245.224 168.545,244.949 168.304 C 244.876 168.239,244.242 168.099,243.541 167.992 C 242.651 167.857,242.458 167.886,242.903 168.087 M247.767 168.965 C 248.162 169.041,248.808 169.041,249.203 168.965 C 249.597 168.889,249.274 168.827,248.485 168.827 C 247.695 168.827,247.372 168.889,247.767 168.965 M250.961 169.285 C 251.357 169.361,251.932 169.358,252.237 169.278 C 252.542 169.198,252.217 169.136,251.515 169.139 C 250.813 169.143,250.564 169.208,250.961 169.285 M215.949 173.525 C 215.591 174.226,215.370 174.801,215.458 174.801 C 215.545 174.801,215.910 174.226,216.268 173.525 C 216.626 172.823,216.847 172.249,216.759 172.249 C 216.672 172.249,216.307 172.823,215.949 173.525 M227.522 172.967 C 225.523 175.143,221.215 183.363,221.778 183.926 C 221.846 183.993,222.371 182.811,222.946 181.298 C 224.100 178.260,227.598 172.796,228.500 172.623 C 228.815 172.562,230.067 173.035,231.282 173.674 C 234.086 175.147,234.187 174.922,231.408 173.395 C 228.974 172.056,228.415 171.995,227.522 172.967 M235.726 175.704 C 235.989 175.866,236.563 176.095,237.002 176.213 C 237.556 176.361,237.653 176.336,237.321 176.130 C 237.057 175.968,236.483 175.739,236.045 175.621 C 235.490 175.473,235.393 175.498,235.726 175.704 M238.437 176.715 C 238.788 176.865,239.362 176.984,239.713 176.979 C 240.226 176.972,240.194 176.920,239.553 176.715 C 238.463 176.365,237.624 176.365,238.437 176.715 M241.627 177.352 C 242.153 177.486,242.943 177.596,243.381 177.596 C 244.093 177.596,244.075 177.570,243.222 177.352 C 242.695 177.219,241.906 177.109,241.467 177.109 C 240.756 177.109,240.773 177.135,241.627 177.352 M248.006 178.322 C 249.059 178.452,250.638 178.553,251.515 178.545 C 253.028 178.532,253.003 178.519,251.037 178.298 C 249.896 178.170,248.317 178.069,247.528 178.075 C 246.231 178.083,246.277 178.107,248.006 178.322 M257.193 178.866 C 258.736 178.925,261.177 178.924,262.615 178.865 C 264.054 178.806,262.791 178.759,259.809 178.759 C 256.826 178.759,255.649 178.808,257.193 178.866 M212.796 180.915 C 212.776 181.208,212.677 181.710,212.576 182.031 C 212.402 182.585,212.411 182.586,212.757 182.047 C 212.957 181.735,213.056 181.232,212.977 180.931 C 212.847 180.437,212.830 180.436,212.796 180.915 M211.979 183.909 C 211.859 184.549,211.825 185.137,211.903 185.215 C 211.981 185.293,212.143 184.833,212.263 184.193 C 212.383 183.553,212.418 182.965,212.340 182.887 C 212.262 182.809,212.100 183.269,211.979 183.909 M221.118 185.945 C 220.906 186.860,220.745 187.920,220.759 188.302 C 220.773 188.683,220.987 188.062,221.236 186.922 C 221.484 185.781,221.645 184.721,221.594 184.565 C 221.543 184.409,221.329 185.030,221.118 185.945 M211.260 189.474 C 211.260 190.439,211.320 190.833,211.393 190.351 C 211.466 189.868,211.466 189.079,211.393 188.596 C 211.320 188.114,211.260 188.509,211.260 189.474 M220.487 205.901 C 220.442 215.199,220.286 222.994,220.141 223.224 C 219.939 223.541,218.843 223.617,215.520 223.543 C 213.124 223.489,211.163 223.553,211.164 223.684 C 211.164 223.816,213.239 223.923,215.775 223.923 L 220.386 223.923 220.571 222.887 C 220.673 222.317,220.714 214.458,220.663 205.423 L 220.568 188.995 220.487 205.901 M210.993 207.815 C 210.993 216.236,211.034 219.635,211.084 215.369 C 211.135 211.102,211.135 204.212,211.084 200.058 C 211.034 195.903,210.993 199.394,210.993 207.815 " stroke="none" fill="#848484" fill-rule="evenodd"></path></g></svg>